<svg xmlns="http://www.w3.org/2000/svg" width="1600" height="1000" viewBox="0 0 1600 1000" role="img" aria-labelledby="title desc">
  <title id="title">BIZNORYX dashboard preview</title>
  <desc id="desc">A clean dashboard interface showing verified metrics, trends, actions, and outcomes.</desc>
  <defs>
    <linearGradient id="surface" x1="0" x2="1" y1="0" y2="1">
      <stop offset="0" stop-color="#f7f4ee"/>
      <stop offset="1" stop-color="#dce6df"/>
    </linearGradient>
    <linearGradient id="panel" x1="0" x2="1" y1="0" y2="1">
      <stop offset="0" stop-color="#ffffff"/>
      <stop offset="1" stop-color="#eef3f0"/>
    </linearGradient>
    <filter id="shadow" x="-20%" y="-20%" width="140%" height="140%">
      <feDropShadow dx="0" dy="24" stdDeviation="32" flood-color="#16251d" flood-opacity="0.22"/>
    </filter>
  </defs>
  <rect width="1600" height="1000" fill="url(#surface)"/>
  <rect x="150" y="104" width="1300" height="792" rx="34" fill="#17251f" filter="url(#shadow)"/>
  <rect x="176" y="132" width="1248" height="736" rx="24" fill="url(#panel)"/>
  <rect x="176" y="132" width="238" height="736" rx="24" fill="#17251f"/>
  <text x="224" y="205" font-family="Inter, Arial, sans-serif" font-size="38" font-weight="700" fill="#f6f1e8">BIZNORYX</text>
  <text x="224" y="276" font-family="Inter, Arial, sans-serif" font-size="22" fill="#b9c7bd">Overview</text>
  <text x="224" y="330" font-family="Inter, Arial, sans-serif" font-size="22" fill="#7e8f83">Data</text>
  <text x="224" y="384" font-family="Inter, Arial, sans-serif" font-size="22" fill="#7e8f83">Actions</text>
  <text x="224" y="438" font-family="Inter, Arial, sans-serif" font-size="22" fill="#7e8f83">Reports</text>
  <rect x="476" y="188" width="350" height="132" rx="18" fill="#ffffff" stroke="#d7ded8"/>
  <rect x="858" y="188" width="238" height="132" rx="18" fill="#ffffff" stroke="#d7ded8"/>
  <rect x="1128" y="188" width="238" height="132" rx="18" fill="#ffffff" stroke="#d7ded8"/>
  <text x="506" y="234" font-family="Inter, Arial, sans-serif" font-size="20" fill="#68756c">Revenue</text>
  <text x="506" y="285" font-family="Inter, Arial, sans-serif" font-size="44" font-weight="700" fill="#17251f">$150k</text>
  <text x="884" y="234" font-family="Inter, Arial, sans-serif" font-size="20" fill="#68756c">Outcome</text>
  <text x="884" y="285" font-family="Inter, Arial, sans-serif" font-size="35" font-weight="700" fill="#226e4a">Improved</text>
  <text x="1154" y="234" font-family="Inter, Arial, sans-serif" font-size="20" fill="#68756c">Evidence</text>
  <text x="1154" y="285" font-family="Inter, Arial, sans-serif" font-size="35" font-weight="700" fill="#17251f">3 files</text>
  <rect x="476" y="370" width="890" height="254" rx="20" fill="#ffffff" stroke="#d7ded8"/>
  <polyline points="540,555 660,520 780,540 900,470 1020,430 1140,410 1300,350" fill="none" stroke="#226e4a" stroke-width="10" stroke-linecap="round" stroke-linejoin="round"/>
  <line x1="540" y1="555" x2="1300" y2="555" stroke="#dbe2dc" stroke-width="3"/>
  <line x1="540" y1="475" x2="1300" y2="475" stroke="#e7ece8" stroke-width="3"/>
  <line x1="540" y1="395" x2="1300" y2="395" stroke="#e7ece8" stroke-width="3"/>
  <text x="506" y="674" font-family="Inter, Arial, sans-serif" font-size="26" font-weight="700" fill="#17251f">Actions and outcomes</text>
  <rect x="506" y="710" width="820" height="54" rx="12" fill="#f3f6f3"/>
  <rect x="506" y="782" width="660" height="54" rx="12" fill="#f3f6f3"/>
  <circle cx="540" cy="737" r="10" fill="#226e4a"/>
  <circle cx="540" cy="809" r="10" fill="#c48a27"/>
  <text x="570" y="745" font-family="Inter, Arial, sans-serif" font-size="20" fill="#17251f">Later KPI verified after action baseline</text>
  <text x="570" y="817" font-family="Inter, Arial, sans-serif" font-size="20" fill="#17251f">No causal claim without evidence</text>
</svg>
